<svg width="15" height="15" viewBox="0 0 15 15" fill="none" xmlns="http://www.w3.org/2000/svg">
<g clip-path="url(#clip0_1_22)">
<path d="M13.7647 6.76215V2.56061C13.7647 2.18917 13.6171 1.83294 13.3545 1.5703C13.0918 1.30765 12.7356 1.1601 12.3641 1.1601H2.56055C2.18911 1.1601 1.83288 1.30765 1.57024 1.5703C1.30759 1.83294 1.16003 2.18917 1.16003 2.56061V12.3642C1.16003 12.7357 1.30759 13.0919 1.57024 13.3545C1.83288 13.6172 2.18911 13.7647 2.56055 13.7647H6.76209" fill="url(#paint0_linear_1_22)"/>
<path d="M13.7647 6.76215V2.56061C13.7647 2.18917 13.6171 1.83294 13.3545 1.5703C13.0918 1.30765 12.7356 1.1601 12.3641 1.1601H2.56055C2.18911 1.1601 1.83288 1.30765 1.57024 1.5703C1.30759 1.83294 1.16003 2.18917 1.16003 2.56061V12.3642C1.16003 12.7356 1.30759 13.0919 1.57024 13.3545C1.83288 13.6172 2.18911 13.7647 2.56055 13.7647H6.76209" stroke="#DDC6B6" stroke-width="1.66667" stroke-linecap="round" stroke-linejoin="round"/>
<path d="M7.52115 7.92564C7.49862 7.86912 7.49315 7.80723 7.50542 7.74763C7.51769 7.68803 7.54716 7.63334 7.59019 7.59031C7.63321 7.54728 7.68791 7.51781 7.74751 7.50554C7.80711 7.49327 7.869 7.49874 7.92552 7.52127L13.5505 9.70877C13.6108 9.73233 13.6623 9.77405 13.6979 9.82815C13.7335 9.88225 13.7514 9.94606 13.7491 10.0108C13.7468 10.0755 13.7245 10.1379 13.6853 10.1894C13.646 10.2408 13.5917 10.2789 13.5299 10.2981L11.3774 10.9656C11.2803 10.9957 11.1919 11.0489 11.1201 11.1208C11.0482 11.1927 10.9949 11.281 10.9649 11.3781L10.298 13.53C10.2787 13.5918 10.2407 13.6461 10.1892 13.6854C10.1378 13.7246 10.0754 13.747 10.0106 13.7492C9.94594 13.7515 9.88212 13.7336 9.82802 13.698C9.77393 13.6624 9.73221 13.611 9.70865 13.5506L7.52115 7.92564Z" fill="#DDC6B6" stroke="#DDC6B6" stroke-width="1.66667" stroke-linecap="round" stroke-linejoin="round"/>
</g>
<defs>
<linearGradient id="paint0_linear_1_22" x1="1.33925" y1="1.33931" x2="10.1785" y2="10.1786" gradientUnits="userSpaceOnUse">
<stop stop-color="#DDC6B6"/>
<stop offset="0.763077" stop-color="#C5A5A1" stop-opacity="0"/>
<stop offset="1" stop-color="#998380" stop-opacity="0"/>
</linearGradient>
<clipPath id="clip0_1_22">
<rect width="15" height="15" fill="white"/>
</clipPath>
</defs>
</svg>
