<svg width="32" height="32" viewBox="0 0 32 32" fill="none" xmlns="http://www.w3.org/2000/svg">
<g clip-path="url(#clip0_1_40)">
<path d="M29.3646 14.4258V5.46256C29.3646 4.67015 29.0498 3.9102 28.4895 3.34989C27.9292 2.78957 27.1692 2.47479 26.3768 2.47479H5.4625C4.67009 2.47479 3.91014 2.78957 3.34983 3.34989C2.78951 3.9102 2.47473 4.67015 2.47473 5.46256V26.3769C2.47473 27.1693 2.78951 27.9293 3.34983 28.4896C3.91014 29.0499 4.67009 29.3647 5.4625 29.3647H14.4258" fill="url(#paint0_linear_1_40)"/>
<path d="M29.3646 14.4258V5.46256C29.3646 4.67015 29.0498 3.9102 28.4895 3.34989C27.9292 2.78957 27.1692 2.47479 26.3768 2.47479H5.4625C4.67009 2.47479 3.91014 2.78957 3.34983 3.34989C2.78951 3.9102 2.47473 4.67015 2.47473 5.46256V26.3769C2.47473 27.1693 2.78951 27.9293 3.34983 28.4896C3.91014 29.0499 4.67009 29.3647 5.4625 29.3647H14.4258" stroke="#262223" stroke-width="3.55556" stroke-linecap="round" stroke-linejoin="round"/>
<path d="M16.0452 16.908C15.9972 16.7874 15.9855 16.6554 16.0117 16.5283C16.0379 16.4011 16.1007 16.2844 16.1925 16.1927C16.2843 16.1009 16.401 16.038 16.5281 16.0118C16.6553 15.9856 16.7873 15.9973 16.9079 16.0454L28.9079 20.712C29.0366 20.7623 29.1464 20.8513 29.2223 20.9667C29.2982 21.0821 29.3364 21.2183 29.3315 21.3563C29.3267 21.4943 29.2791 21.6275 29.1953 21.7373C29.1116 21.8471 28.9958 21.9282 28.8639 21.9694L24.2719 23.3934C24.0647 23.4574 23.8763 23.5711 23.7229 23.7244C23.5696 23.8777 23.456 24.0662 23.3919 24.2734L21.9692 28.864C21.9281 28.9959 21.847 29.1117 21.7372 29.1955C21.6273 29.2792 21.4942 29.3268 21.3562 29.3317C21.2181 29.3365 21.082 29.2983 20.9666 29.2224C20.8512 29.1465 20.7622 29.0367 20.7119 28.908L16.0452 16.908Z" fill="#262223" stroke="#262223" stroke-width="3.55556" stroke-linecap="round" stroke-linejoin="round"/>
</g>
<defs>
<linearGradient id="paint0_linear_1_40" x1="2.85706" y1="2.85712" x2="21.7142" y2="21.7143" gradientUnits="userSpaceOnUse">
<stop stop-color="#262223"/>
<stop offset="0.763077" stop-color="#C5A5A1" stop-opacity="0"/>
<stop offset="1" stop-color="#998380" stop-opacity="0"/>
</linearGradient>
<clipPath id="clip0_1_40">
<rect width="32" height="32" fill="white"/>
</clipPath>
</defs>
</svg>
